<?xml version="1.0" encoding="iso-8859-1"?>
<!-- Generator: Adobe Illustrator 19.0.0, SVG Export Plug-In . SVG Version: 6.00 Build 0)  -->
<svg version="1.1" id="Layer_1" xmlns="http://www.w3.org/2000/svg" xmlns:xlink="http://www.w3.org/1999/xlink" x="0px" y="0px"
	 viewBox="0 0 512 512" style="enable-background:new 0 0 512 512;" xml:space="preserve">
<path style="fill:#D7EBFF;" d="M256,512C114.837,512,0,397.157,0,256S114.837,0,256,0s256,114.843,256,256S397.163,512,256,512z"/>
<path style="fill:#C4E2FF;" d="M512,256C512,114.843,397.163,0,256,0v512C397.163,512,512,397.157,512,256z"/>
<path style="fill:#3ABBE6;" d="M256,478.609c-122.75,0-222.609-99.864-222.609-222.609S133.25,33.391,256,33.391
	S478.609,133.256,478.609,256S378.75,478.609,256,478.609z"/>
<path style="fill:#33A6CC;" d="M478.609,256c0-122.744-99.859-222.609-222.609-222.609v445.217
	C378.75,478.609,478.609,378.744,478.609,256z"/>
<circle style="fill:#FFFFFF;" cx="256" cy="122.435" r="33.391"/>
<path style="fill:#EDF0F2;" d="M289.391,122.435c0-18.442-14.949-33.391-33.391-33.391v66.783
	C274.442,155.826,289.391,140.877,289.391,122.435z"/>
<path style="fill:#FFFFFF;" d="M256,422.957L256,422.957c-18.442,0-33.391-14.949-33.391-33.391V222.609
	c0-18.442,14.949-33.391,33.391-33.391l0,0c18.442,0,33.391,14.949,33.391,33.391v166.956
	C289.391,408.007,274.442,422.957,256,422.957z"/>
<path style="fill:#EDF0F2;" d="M289.391,389.565V222.609c0-18.442-14.949-33.391-33.391-33.391v233.739
	C274.442,422.957,289.391,408.007,289.391,389.565z"/>
<g>
</g>
<g>
</g>
<g>
</g>
<g>
</g>
<g>
</g>
<g>
</g>
<g>
</g>
<g>
</g>
<g>
</g>
<g>
</g>
<g>
</g>
<g>
</g>
<g>
</g>
<g>
</g>
<g>
</g>
</svg>
